<svg xmlns="http://www.w3.org/2000/svg" version="1.1" xmlns:xlink="http://www.w3.org/1999/xlink" xmlns:svgjs="http://svgjs.dev/svgjs" width="2000" height="1030" viewBox="0 0 2000 1030"><g transform="matrix(1,0,0,1,-1.210983476905426,6.974474016962972)"><svg viewBox="0 0 396 204" data-background-color="#ffffff" preserveAspectRatio="xMidYMid meet" height="1030" width="2000" xmlns="http://www.w3.org/2000/svg" xmlns:xlink="http://www.w3.org/1999/xlink"><g id="tight-bounds" transform="matrix(1,0,0,1,0.2397747284272782,-0.10942071913308382)"><svg viewBox="0 0 395.52 204.21884143826617" height="204.21884143826617" width="395.52"><g><svg viewBox="0 0 395.52 204.21884143826617" height="204.21884143826617" width="395.52"><g transform="matrix(1,0,0,1,0,147.36941187375993)"><svg viewBox="0 0 395.52 56.849429564506224" height="56.849429564506224" width="395.52"><g id="textblocktransform"><svg viewBox="0 0 395.52 56.849429564506224" height="56.849429564506224" width="395.52" id="textblock"><g><svg viewBox="0 0 395.52 56.849429564506224" height="56.849429564506224" width="395.52"><g transform="matrix(1,0,0,1,0,0)"><svg width="395.52" viewBox="4.35 -34.5 242.68172355737497 35.15" height="56.849429564506224" data-palette-color="#000000"><g class="wordmark-text-0" data-fill-palette-color="primary" id="text-0"><path d="M4.35-34.5L8.75-34.5 8.75 0 4.35 0 4.35-34.5ZM8.35-20.35L25.2-20.35 25.2-16.55 8.35-16.55 8.35-20.35ZM24.65-34.5L29.05-34.5 29.05 0 24.65 0 24.65-34.5ZM47.6-24.95L47.6-24.95Q51.8-24.95 54.32-23.7 56.85-22.45 57.95-19.63 59.05-16.8 59.05-12.15L59.05-12.15Q59.05-7.5 57.95-4.67 56.85-1.85 54.32-0.6 51.8 0.65 47.6 0.65L47.6 0.65Q43.45 0.65 40.92-0.6 38.4-1.85 37.27-4.67 36.15-7.5 36.15-12.15L36.15-12.15Q36.15-16.8 37.27-19.63 38.4-22.45 40.92-23.7 43.45-24.95 47.6-24.95ZM47.6-21.35L47.6-21.35Q44.95-21.35 43.42-20.53 41.9-19.7 41.25-17.7 40.6-15.7 40.6-12.15L40.6-12.15Q40.6-8.6 41.25-6.6 41.9-4.6 43.42-3.78 44.95-2.95 47.6-2.95L47.6-2.95Q50.25-2.95 51.8-3.78 53.35-4.6 54-6.6 54.65-8.6 54.65-12.15L54.65-12.15Q54.65-15.7 54-17.7 53.35-19.7 51.8-20.53 50.25-21.35 47.6-21.35ZM95.34-24.95L95.34-24.95Q98.5-24.95 100.17-23.25 101.84-21.55 101.84-18.25L101.84-18.25 101.84 0 97.65 0 97.65-17.05Q97.59-19.3 96.75-20.33 95.9-21.35 93.84-21.35L93.84-21.35Q92.55-21.35 91.37-20.93 90.2-20.5 88.8-19.6 87.4-18.7 85.4-17.25L85.4-17.25 85.15-20.25Q87.8-22.6 90.3-23.78 92.8-24.95 95.34-24.95ZM65.7-24.35L69.2-24.35 69.5-19.7 69.95-18.95 69.95 0 65.7 0 65.7-24.35ZM79.4-24.95L79.4-24.95Q82.5-24.95 84.15-23.28 85.8-21.6 85.84-18.25L85.84-18.25 85.84 0 81.75 0 81.75-17.05Q81.75-19.4 80.8-20.38 79.84-21.35 77.95-21.35L77.95-21.35Q76.7-21.35 75.52-20.95 74.34-20.55 72.92-19.65 71.5-18.75 69.45-17.25L69.45-17.25 69.14-20.25Q71.8-22.6 74.3-23.78 76.8-24.95 79.4-24.95ZM119.49-24.95L119.49-24.95Q124.99-24.95 127.47-22.95 129.94-20.95 129.94-17L129.94-17Q129.99-13.75 128.59-11.93 127.19-10.1 124.14-10.1L124.14-10.1 109.94-10.1 109.94-13.4 123.04-13.4Q124.69-13.4 125.19-14.53 125.69-15.65 125.69-17L125.69-17Q125.64-19.35 124.29-20.35 122.94-21.35 119.69-21.35L119.69-21.35Q117.04-21.35 115.52-20.58 113.99-19.8 113.37-17.88 112.74-15.95 112.74-12.5L112.74-12.5Q112.74-8.6 113.52-6.55 114.29-4.5 115.99-3.75 117.69-3 120.49-3L120.49-3Q122.44-3 124.77-3.18 127.09-3.35 128.94-3.6L128.94-3.6 129.39-0.75Q128.24-0.3 126.57 0 124.89 0.3 123.12 0.45 121.34 0.6 119.94 0.6L119.94 0.6Q115.74 0.6 113.19-0.68 110.64-1.95 109.47-4.78 108.29-7.6 108.29-12.25L108.29-12.25Q108.29-17.05 109.47-19.83 110.64-22.6 113.12-23.78 115.59-24.95 119.49-24.95Z" fill="#000000" data-fill-palette-color="primary"></path><path d="M145.442-34.5L149.842-34.5 149.842 0 145.442 0 145.442-34.5ZM149.442-20.35L166.292-20.35 166.292-16.55 149.442-16.55 149.442-20.35ZM165.742-34.5L170.142-34.5 170.142 0 165.742 0 165.742-34.5ZM188.392-24.95L188.392-24.95Q193.892-24.95 196.362-22.95 198.842-20.95 198.842-17L198.842-17Q198.892-13.75 197.492-11.93 196.092-10.1 193.032-10.1L193.032-10.1 178.842-10.1 178.842-13.4 191.942-13.4Q193.592-13.4 194.092-14.53 194.592-15.65 194.592-17L194.592-17Q194.532-19.35 193.192-20.35 191.842-21.35 188.592-21.35L188.592-21.35Q185.942-21.35 184.412-20.58 182.892-19.8 182.262-17.88 181.642-15.95 181.642-12.5L181.642-12.5Q181.642-8.6 182.412-6.55 183.192-4.5 184.892-3.75 186.592-3 189.392-3L189.392-3Q191.342-3 193.662-3.18 195.992-3.35 197.842-3.6L197.842-3.6 198.282-0.75Q197.142-0.3 195.462 0 193.782 0.3 192.012 0.45 190.242 0.6 188.842 0.6L188.842 0.6Q184.642 0.6 182.092-0.68 179.532-1.95 178.362-4.78 177.192-7.6 177.192-12.25L177.192-12.25Q177.192-17.05 178.362-19.83 179.532-22.6 182.012-23.78 184.492-24.95 188.392-24.95ZM205.232-24.35L208.532-24.35 209.082-19.7 209.482-18.95 209.482 0 205.232 0 205.232-24.35ZM219.382-24.95L220.482-24.95 219.982-20.95 218.582-20.95Q216.432-20.95 214.282-20.08 212.132-19.2 209.032-17.6L209.032-17.6 208.682-20.25Q211.382-22.45 214.112-23.7 216.832-24.95 219.382-24.95L219.382-24.95ZM235.582-24.95L235.582-24.95Q239.782-24.95 242.312-23.7 244.832-22.45 245.932-19.63 247.032-16.8 247.032-12.15L247.032-12.15Q247.032-7.5 245.932-4.67 244.832-1.85 242.312-0.6 239.782 0.65 235.582 0.65L235.582 0.65Q231.432 0.65 228.912-0.6 226.382-1.85 225.262-4.67 224.132-7.5 224.132-12.15L224.132-12.15Q224.132-16.8 225.262-19.63 226.382-22.45 228.912-23.7 231.432-24.95 235.582-24.95ZM235.582-21.35L235.582-21.35Q232.932-21.35 231.412-20.53 229.882-19.7 229.232-17.7 228.582-15.7 228.582-12.15L228.582-12.15Q228.582-8.6 229.232-6.6 229.882-4.6 231.412-3.78 232.932-2.95 235.582-2.95L235.582-2.95Q238.232-2.95 239.782-3.78 241.332-4.6 241.982-6.6 242.632-8.6 242.632-12.15L242.632-12.15Q242.632-15.7 241.982-17.7 241.332-19.7 239.782-20.53 238.232-21.35 235.582-21.35Z" fill="#803dbe" data-fill-palette-color="accent"></path></g></svg></g></svg></g></svg></g></svg></g><g transform="matrix(1,0,0,1,129.16780688775117,0)"><svg viewBox="0 0 137.18438622449767 133.94862593988955" height="133.94862593988955" width="137.18438622449767"><g><svg xmlns="http://www.w3.org/2000/svg" xmlns:xlink="http://www.w3.org/1999/xlink" version="1.1" x="0" y="0" viewBox="11.017823632605122 11.461749422187646 37.96369815853941 37.06825057781236" style="enable-background:new 0 0 60 60;" xml:space="preserve" height="133.94862593988955" width="137.18438622449767" class="icon-icon-0" data-fill-palette-color="accent" id="icon-0"><path d="M48.85 34.1L35.82 11.92A0.945 0.945 0 0 0 34.2 11.92L30 19.08 25.79 11.93A0.945 0.945 0 0 0 24.17 11.93L11.15 34.1C10.93 34.47 10.99 34.93 11.29 35.23L24.32 48.26C24.5 48.44 24.74 48.53 24.98 48.53S25.46 48.44 25.64 48.26L30 43.91 34.35 48.26C34.53 48.44 34.77 48.53 35.01 48.53S35.49 48.44 35.67 48.26L48.7 35.23C49.01 34.93 49.07 34.46 48.85 34.1M24.99 46.28L13.13 34.42 24.99 14.24 28.92 20.92 21.17 34.1C20.95 34.47 21.01 34.93 21.31 35.23L28.67 42.59zM30 22.77L36.85 34.42 30 41.27 23.15 34.42zM35.01 46.28L31.32 42.59 38.68 35.23C38.98 34.93 39.04 34.46 38.82 34.1L31.08 20.93 35.01 14.25 46.87 34.43z" fill="#803dbe" data-fill-palette-color="accent"></path></svg></g></svg></g><g></g></svg></g><defs></defs></svg><rect width="395.52" height="204.21884143826617" fill="none" stroke="none" visibility="hidden"></rect></g></svg></g></svg>